# xmcd
#
# Track frame offsets:
#	150
#	14334
#	24823
#	35938
#	46616
#	57486
#	67654
#	78084
#	88573
#	100615
#	111542
#	124195
#	135509
#	149492
#
# Disc length: 2064 seconds
#
# Revision: 0
# Processed by: cddbd v1.5.2PL0 Copyright (c) Steve Scherf et al.
# Submitted via: EasyCDDAExtractor 9.0.0.1
#
DISCID=b1080e0e
DTITLE=Ryan, Charlie - Hot Rod Lincoln
DYEAR=2000
DGENRE=Country
TTITLE0=Hot Rod Lincoln
TTITLE1=Let's Try Again
TTITLE2=Side Car Cycle
TTITLE3=House Next Door
TTITLE4=Burlington Chase
TTITLE5=Never Alone
TTITLE6=Hot Rod Hades
TTITLE7=Along the Border
TTITLE8=Rocket Race
TTITLE9=Hot Rod Guitar
TTITLE10=Chicken House Boogie
TTITLE11=Beautiful Carolinas
TTITLE12=Dream
TTITLE13=Jack's Boogie
EXTD=
EXTT0=
EXTT1=
EXTT2=
EXTT3=
EXTT4=
EXTT5=
EXTT6=
EXTT7=
EXTT8=
EXTT9=
EXTT10=
EXTT11=
EXTT12=
EXTT13=
PLAYORDER=
